REM DIRINDEX 1\2\5,1\2\6,1\2\7,1\2\8,1\3\9,1\3\10,1\3\11,1\4\12,1\4\13,1\4\14,1\4\15,1\4\16
REM DIRNAME cjc034,folder01,folder02,folder03,folder04,folder05,folder06,folder07,folder08,folder09,folder10,folder11,folder12,folder13,folder14,folder15
TITLE ""
FILE "1200_2_sec01_0067_0084.mp3" MP3
  TRACK 01 AUDIO
    TITLE "0:"
    INDEX 01 00:00:00
  TRACK 02 AUDIO
    TITLE "10:cjc034_00137"
    INDEX 01 00:00:13
  TRACK 03 AUDIO
    TITLE "0:"
    INDEX 01 00:02:49
  TRACK 04 AUDIO
    TITLE "9:cjc034_00138"
    INDEX 01 00:02:57
  TRACK 05 AUDIO
    TITLE "0:"
    INDEX 01 00:04:01
  TRACK 06 AUDIO
    TITLE "10:cjc034_00139"
    INDEX 01 00:04:58
  TRACK 07 AUDIO
    TITLE "0:"
    INDEX 01 00:05:57
  TRACK 08 AUDIO
    TITLE "9:cjc034_00140"
    INDEX 01 00:05:65
  TRACK 09 AUDIO
    TITLE "0:"
    INDEX 01 00:06:73
  TRACK 10 AUDIO
    TITLE "10:cjc034_00141"
    INDEX 01 00:07:56
  TRACK 11 AUDIO
    TITLE "0:"
    INDEX 01 00:08:44
  TRACK 12 AUDIO
    TITLE "9:cjc034_00142"
    INDEX 01 00:08:48
  TRACK 13 AUDIO
    TITLE "0:"
    INDEX 01 00:09:59
  TRACK 14 AUDIO
    TITLE "10:cjc034_00143"
    INDEX 01 00:10:43
  TRACK 15 AUDIO
    TITLE "0:"
    INDEX 01 00:11:33
  TRACK 16 AUDIO
    TITLE "9:cjc034_00144"
    INDEX 01 00:11:40
  TRACK 17 AUDIO
    TITLE "0:"
    INDEX 01 00:12:54
  TRACK 18 AUDIO
    TITLE "10:cjc034_00145"
    INDEX 01 00:13:28
  TRACK 19 AUDIO
    TITLE "0:"
    INDEX 01 00:14:37
  TRACK 20 AUDIO
    TITLE "9:cjc034_00146"
    INDEX 01 00:14:41
  TRACK 21 AUDIO
    TITLE "0:"
    INDEX 01 00:15:23
  TRACK 22 AUDIO
    TITLE "10:cjc034_00147"
    INDEX 01 00:16:18
  TRACK 23 AUDIO
    TITLE "0:"
    INDEX 01 00:17:12
  TRACK 24 AUDIO
    TITLE "9:cjc034_00148"
    INDEX 01 00:17:25
  TRACK 25 AUDIO
    TITLE "0:"
    INDEX 01 00:18:31
  TRACK 26 AUDIO
    TITLE "11:cjc034_00149"
    INDEX 01 00:20:02
  TRACK 27 AUDIO
    TITLE "0:"
    INDEX 01 00:21:64
  TRACK 28 AUDIO
    TITLE "10:cjc034_00150"
    INDEX 01 00:22:68
  TRACK 29 AUDIO
    TITLE "0:"
    INDEX 01 00:24:08
  TRACK 30 AUDIO
    TITLE "9:cjc034_00151"
    INDEX 01 00:24:12
  TRACK 31 AUDIO
    TITLE "0:"
    INDEX 01 00:25:27
  TRACK 32 AUDIO
    TITLE "10:cjc034_00152"
    INDEX 01 00:26:09
  TRACK 33 AUDIO
    TITLE "0:"
    INDEX 01 00:27:08
  TRACK 34 AUDIO
    TITLE "9:cjc034_00153"
    INDEX 01 00:27:12
  TRACK 35 AUDIO
    TITLE "0:"
    INDEX 01 00:28:19
  TRACK 36 AUDIO
    TITLE "10:cjc034_00154"
    INDEX 01 00:29:03
  TRACK 37 AUDIO
    TITLE "0:"
    INDEX 01 00:30:03
  TRACK 38 AUDIO
    TITLE "9:cjc034_00155"
    INDEX 01 00:30:08
  TRACK 39 AUDIO
    TITLE "0:"
    INDEX 01 00:31:20
  TRACK 40 AUDIO
    TITLE "10:cjc034_00156"
    INDEX 01 00:32:03
  TRACK 41 AUDIO
    TITLE "0:"
    INDEX 01 00:34:14
  TRACK 42 AUDIO
    TITLE "9:cjc034_00157"
    INDEX 01 00:34:16
  TRACK 43 AUDIO
    TITLE "0:"
    INDEX 01 00:35:23
  TRACK 44 AUDIO
    TITLE "10:cjc034_00158"
    INDEX 01 00:36:07
  TRACK 45 AUDIO
    TITLE "0:"
    INDEX 01 00:38:26
  TRACK 46 AUDIO
    TITLE "9:cjc034_00159"
    INDEX 01 00:38:31
  TRACK 47 AUDIO
    TITLE "0:"
    INDEX 01 00:39:39
  TRACK 48 AUDIO
    TITLE "10:cjc034_00160"
    INDEX 01 00:40:19
  TRACK 49 AUDIO
    TITLE "0:"
    INDEX 01 00:41:18
  TRACK 50 AUDIO
    TITLE "9:cjc034_00161"
    INDEX 01 00:41:20
  TRACK 51 AUDIO
    TITLE "0:"
    INDEX 01 00:42:23
  TRACK 52 AUDIO
    TITLE "10:cjc034_00162"
    INDEX 01 00:43:09
  TRACK 53 AUDIO
    TITLE "0:"
    INDEX 01 00:44:38
  TRACK 54 AUDIO
    TITLE "9:cjc034_00163"
    INDEX 01 00:44:40
  TRACK 55 AUDIO
    TITLE "0:"
    INDEX 01 00:45:51
  TRACK 56 AUDIO
    TITLE "10:cjc034_00164"
    INDEX 01 00:46:35
  TRACK 57 AUDIO
    TITLE "0:"
    INDEX 01 00:47:52
  TRACK 58 AUDIO
    TITLE "9:cjc034_00165"
    INDEX 01 00:47:58
  TRACK 59 AUDIO
    TITLE "0:"
    INDEX 01 00:49:00
  TRACK 60 AUDIO
    TITLE "10:cjc034_00166"
    INDEX 01 00:49:57
  TRACK 61 AUDIO
    TITLE "0:"
    INDEX 01 00:50:52
  TRACK 62 AUDIO
    TITLE "9:cjc034_00167"
    INDEX 01 00:50:56
  TRACK 63 AUDIO
    TITLE "0:"
    INDEX 01 00:51:58
  TRACK 64 AUDIO
    TITLE "10:cjc034_00168"
    INDEX 01 00:52:45
  TRACK 65 AUDIO
    TITLE "0:"
    INDEX 01 00:53:68
  TRACK 66 AUDIO
    TITLE "9:cjc034_00169"
    INDEX 01 00:54:01
  TRACK 67 AUDIO
    TITLE "0:"
    INDEX 01 00:55:16
  TRACK 68 AUDIO
    TITLE "10:cjc034_00170"
    INDEX 01 00:56:00
  TRACK 69 AUDIO
    TITLE "0:"
    INDEX 01 00:57:11
  TRACK 70 AUDIO
    TITLE "9:cjc034_00171"
    INDEX 01 00:57:21
  TRACK 71 AUDIO
    TITLE "0:"
    INDEX 01 00:58:32
  TRACK 72 AUDIO
    TITLE "10:cjc034_00172"
    INDEX 01 00:59:14
  TRACK 73 AUDIO
    TITLE "0:"
    INDEX 01 01:00:43
  TRACK 74 AUDIO
    TITLE "9:cjc034_00173"
    INDEX 01 01:00:57
  TRACK 75 AUDIO
    TITLE "0:"
    INDEX 01 01:01:74
